<?xml version="1.0" encoding="UTF-8" standalone="no"?>
<!-- Created with Inkscape (http://www.inkscape.org/) -->

<svg
   xmlns:dc="http://purl.org/dc/elements/1.1/"
   xmlns:cc="http://creativecommons.org/ns#"
   xmlns:rdf="http://www.w3.org/1999/02/22-rdf-syntax-ns#"
   xmlns:svg="http://www.w3.org/2000/svg"
   xmlns="http://www.w3.org/2000/svg"
   xmlns:sodipodi="http://sodipodi.sourceforge.net/DTD/sodipodi-0.dtd"
   xmlns:inkscape="http://www.inkscape.org/namespaces/inkscape"
   width="50"
   height="50"
   viewBox="0 0 49.999998 49.999998"
   id="svg4138"
   version="1.1"
   inkscape:version="0.91 r13725"
   sodipodi:docname="sheme.svg">
  <defs
     id="defs4140">
    <filter
       inkscape:collect="always"
       style="color-interpolation-filters:sRGB"
       id="filter4779"
       x="-0.047676767"
       width="1.0953535"
       y="-0.048327646"
       height="1.0966553">
      <feGaussianBlur
         inkscape:collect="always"
         stdDeviation="0.89786274"
         id="feGaussianBlur4781" />
    </filter>
  </defs>
  <sodipodi:namedview
     id="base"
     pagecolor="#ffffff"
     bordercolor="#666666"
     borderopacity="1.0"
     inkscape:pageopacity="0.0"
     inkscape:pageshadow="2"
     inkscape:zoom="6.5711602"
     inkscape:cx="14.804326"
     inkscape:cy="24.122504"
     inkscape:document-units="px"
     inkscape:current-layer="layer1"
     showgrid="false"
     units="px"
     inkscape:window-width="1440"
     inkscape:window-height="853"
     inkscape:window-x="-4"
     inkscape:window-y="-4"
     inkscape:window-maximized="1" />
  <metadata
     id="metadata4143">
    <rdf:RDF>
      <cc:Work
         rdf:about="">
        <dc:format>image/svg+xml</dc:format>
        <dc:type
           rdf:resource="http://purl.org/dc/dcmitype/StillImage" />
        <dc:title></dc:title>
      </cc:Work>
    </rdf:RDF>
  </metadata>
  <g
     inkscape:label="Layer 1"
     inkscape:groupmode="layer"
     id="layer1"
     transform="translate(0,-1002.3622)">
    <rect
       style="opacity:1;fill:#ffff00;fill-opacity:1;fill-rule:nonzero;stroke:none;stroke-width:2;stroke-linecap:butt;stroke-linejoin:round;stroke-miterlimit:4;stroke-dasharray:none;stroke-dashoffset:0;stroke-opacity:1;filter:url(#filter4779)"
       id="rect4765"
       width="45.197498"
       height="44.588776"
       x="2.5870619"
       y="1005.1863" />
    <path
       style="opacity:1;fill:#007eff;fill-opacity:1;fill-rule:nonzero;stroke:none;stroke-width:5;stroke-linecap:butt;stroke-linejoin:round;stroke-miterlimit:4;stroke-dasharray:none;stroke-dashoffset:0;stroke-opacity:1"
       d="M 8.9238281 3.75 C 8.034947 3.75 7.1986018 3.9591233 6.4511719 4.3203125 L 6.4511719 9.0117188 L 12.042969 9.0117188 L 12.042969 3.75 L 8.9238281 3.75 z M 12.451172 3.75 L 12.451172 9.0117188 L 18.042969 9.0117188 L 18.042969 3.75 L 12.451172 3.75 z M 18.451172 3.75 L 18.451172 9.0117188 L 24.042969 9.0117188 L 24.042969 3.75 L 18.451172 3.75 z M 24.451172 3.75 L 24.451172 9.0117188 L 28.677734 9.0117188 L 28.677734 8.0332031 L 25.71875 8.0332031 L 25.71875 5.8808594 L 30.042969 5.8808594 L 30.042969 3.75 L 24.451172 3.75 z M 30.451172 3.75 L 30.451172 5.8808594 L 33.789062 5.8808594 L 33.789062 8.0332031 L 30.830078 8.0332031 L 30.830078 9.0117188 L 35.630859 9.0117188 L 36.042969 8.4394531 L 36.042969 3.75 L 30.451172 3.75 z M 36.451172 3.75 L 36.451172 7.8730469 L 39.417969 3.75 L 36.451172 3.75 z M 41.986328 3.8105469 L 38.242188 9.0117188 L 42.042969 9.0117188 L 42.042969 3.8242188 C 42.023472 3.8213232 42.00589 3.8132455 41.986328 3.8105469 z M 42.451172 3.9179688 L 42.451172 9.0117188 L 46.837891 9.0117188 C 46.655341 6.4918729 44.851737 4.4586612 42.451172 3.9179688 z M 6.0429688 4.5371094 C 4.4818556 5.4561857 3.4080772 7.097489 3.2714844 9.0117188 L 6.0429688 9.0117188 L 6.0429688 4.5371094 z M 3.25 9.421875 L 3.25 9.4238281 L 3.25 15.011719 L 6.0429688 15.011719 L 6.0429688 9.421875 L 3.25 9.421875 z M 6.4511719 9.421875 L 6.4511719 15.011719 L 12.042969 15.011719 L 12.042969 9.421875 L 6.4511719 9.421875 z M 12.451172 9.421875 L 12.451172 15.011719 L 17.525391 15.011719 L 17.525391 12.777344 L 18.042969 12.777344 L 18.042969 9.421875 L 12.451172 9.421875 z M 18.451172 9.421875 L 18.451172 12.777344 L 19.648438 12.777344 L 19.648438 15.011719 L 24.042969 15.011719 L 24.042969 14.820312 L 21.419922 14.820312 L 21.419922 12.699219 L 24.042969 12.699219 L 24.042969 9.421875 L 18.451172 9.421875 z M 24.451172 9.421875 L 24.451172 12.699219 L 28.677734 12.699219 L 28.677734 9.421875 L 24.451172 9.421875 z M 30.830078 9.421875 L 30.830078 12.699219 L 33.736328 12.699219 L 33.736328 14.820312 L 30.830078 14.820312 L 30.830078 15.011719 L 36.042969 15.011719 L 36.042969 12.068359 L 35.195312 13.246094 L 33.474609 12.007812 L 35.335938 9.421875 L 30.830078 9.421875 z M 37.947266 9.421875 L 36.451172 11.501953 L 36.451172 15.011719 L 38.642578 15.011719 L 38.642578 9.421875 L 37.947266 9.421875 z M 40.763672 9.421875 L 40.763672 15.011719 L 42.042969 15.011719 L 42.042969 9.421875 L 40.763672 9.421875 z M 42.451172 9.421875 L 42.451172 15.011719 L 46.875 15.011719 L 46.875 9.4238281 L 46.875 9.421875 L 42.451172 9.421875 z M 24.451172 14.820312 L 24.451172 15.011719 L 28.677734 15.011719 L 28.677734 14.820312 L 24.451172 14.820312 z M 3.25 15.421875 L 3.25 21.011719 L 6.0429688 21.011719 L 6.0429688 15.421875 L 3.25 15.421875 z M 6.4511719 15.421875 L 6.4511719 21.011719 L 12.042969 21.011719 L 12.042969 15.421875 L 6.4511719 15.421875 z M 12.451172 15.421875 L 12.451172 21.011719 L 17.525391 21.011719 L 17.525391 15.421875 L 12.451172 15.421875 z M 19.648438 15.421875 L 19.648438 21.011719 L 24.042969 21.011719 L 24.042969 15.421875 L 19.648438 15.421875 z M 24.451172 15.421875 L 24.451172 21.011719 L 28.677734 21.011719 L 28.677734 15.421875 L 24.451172 15.421875 z M 30.830078 15.421875 L 30.830078 21.011719 L 36.042969 21.011719 L 36.042969 15.421875 L 30.830078 15.421875 z M 36.451172 15.421875 L 36.451172 21.011719 L 38.642578 21.011719 L 38.642578 15.421875 L 36.451172 15.421875 z M 40.763672 15.421875 L 40.763672 21.011719 L 42.042969 21.011719 L 42.042969 15.421875 L 40.763672 15.421875 z M 42.451172 15.421875 L 42.451172 21.011719 L 46.875 21.011719 L 46.875 15.421875 L 42.451172 15.421875 z M 3.25 21.421875 L 3.25 27.011719 L 6.0429688 27.011719 L 6.0429688 21.421875 L 3.25 21.421875 z M 6.4511719 21.421875 L 6.4511719 27.011719 L 10.230469 27.011719 C 10.761826 26.382598 11.369381 25.816271 12.042969 25.324219 L 12.042969 21.421875 L 6.4511719 21.421875 z M 12.451172 21.421875 L 12.451172 25.041016 C 13.08753 24.621435 13.772328 24.260877 14.507812 23.984375 L 15.212891 25.855469 C 14.448469 26.142835 13.750032 26.538408 13.121094 27.011719 L 14.402344 27.011719 A 7.6014034 7.6014034 0 0 1 18.042969 25.960938 L 18.042969 25.09375 L 17.525391 25.09375 L 17.525391 21.421875 L 12.451172 21.421875 z M 19.648438 21.421875 L 19.648438 25.09375 L 18.451172 25.09375 L 18.451172 25.962891 A 7.6014034 7.6014034 0 0 1 22.109375 27.011719 L 24.042969 27.011719 L 24.042969 21.421875 L 19.648438 21.421875 z M 24.451172 21.421875 L 24.451172 27.011719 L 28.677734 27.011719 L 28.677734 21.421875 L 24.451172 21.421875 z M 30.830078 21.421875 L 30.830078 27.011719 L 36.042969 27.011719 L 36.042969 21.421875 L 30.830078 21.421875 z M 36.451172 21.421875 L 36.451172 27.011719 L 38.642578 27.011719 L 38.642578 21.421875 L 36.451172 21.421875 z M 40.763672 21.421875 L 40.763672 27.011719 L 42.042969 27.011719 L 42.042969 21.421875 L 40.763672 21.421875 z M 42.451172 21.421875 L 42.451172 27.011719 L 46.875 27.011719 L 46.875 21.421875 L 42.451172 21.421875 z M 3.25 27.421875 L 3.25 33.011719 L 6.0429688 33.011719 L 6.0429688 27.421875 L 3.25 27.421875 z M 6.4511719 27.421875 L 6.4511719 33.011719 L 7.7851562 33.011719 C 7.9298829 30.955525 8.6818015 29.019154 9.8984375 27.421875 L 6.4511719 27.421875 z M 12.617188 27.421875 C 12.561525 27.470946 12.505431 27.519864 12.451172 27.570312 L 12.451172 28.648438 A 7.6014034 7.6014034 0 0 1 13.779297 27.421875 L 12.617188 27.421875 z M 22.734375 27.421875 A 7.6014034 7.6014034 0 0 1 24.042969 28.638672 L 24.042969 27.421875 L 22.734375 27.421875 z M 24.451172 27.421875 L 24.451172 29.166016 A 7.6014034 7.6014034 0 0 1 25.837891 33.011719 L 26.607422 33.011719 L 26.607422 32.267578 L 28.677734 32.267578 L 28.677734 27.421875 L 24.451172 27.421875 z M 30.830078 27.421875 L 30.830078 32.267578 L 36.042969 32.267578 L 36.042969 27.421875 L 30.830078 27.421875 z M 36.451172 27.421875 L 36.451172 32.267578 L 42.042969 32.267578 L 42.042969 27.421875 L 40.763672 27.421875 L 40.763672 30.953125 L 38.642578 30.953125 L 38.642578 27.421875 L 36.451172 27.421875 z M 42.451172 27.421875 L 42.451172 32.267578 L 46.875 32.267578 L 46.875 27.421875 L 42.451172 27.421875 z M 12.042969 27.978516 C 10.765474 29.341488 9.9562609 31.107739 9.7910156 33.011719 L 10.681641 33.011719 A 7.6014034 7.6014034 0 0 1 12.042969 29.181641 L 12.042969 27.978516 z M 18.451172 28.085938 L 18.451172 33.011719 L 23.705078 33.011719 A 5.4763154 5.4763154 0 0 0 18.451172 28.085938 z M 18.042969 28.087891 A 5.4763154 5.4763154 0 0 0 12.8125 33.011719 L 18.042969 33.011719 L 18.042969 28.087891 z M 3.25 33.421875 L 3.25 39.011719 L 6.0429688 39.011719 L 6.0429688 33.421875 L 3.25 33.421875 z M 6.4511719 33.421875 L 6.4511719 39.011719 L 9.203125 39.011719 C 8.4355345 37.713093 7.9361167 36.237818 7.796875 34.660156 C 7.7601589 34.244139 7.7568806 33.831677 7.7695312 33.421875 L 6.4511719 33.421875 z M 9.7695312 33.421875 C 9.7562353 33.773289 9.7575212 34.126988 9.7890625 34.484375 C 9.9399555 36.194084 10.601817 37.753952 11.621094 39.011719 L 12.042969 39.011719 L 12.042969 37.917969 A 7.6014034 7.6014034 0 0 1 10.654297 33.554688 A 7.6014034 7.6014034 0 0 1 10.660156 33.421875 L 9.7695312 33.421875 z M 12.783203 33.421875 A 5.4763154 5.4763154 0 0 0 12.779297 33.554688 A 5.4763154 5.4763154 0 0 0 17.818359 39.011719 L 18.042969 39.011719 L 18.042969 33.421875 L 12.783203 33.421875 z M 18.451172 33.421875 L 18.451172 39.011719 L 18.646484 39.011719 A 5.4763154 5.4763154 0 0 0 23.732422 33.554688 A 5.4763154 5.4763154 0 0 0 23.726562 33.421875 L 18.451172 33.421875 z M 25.853516 33.421875 A 7.6014034 7.6014034 0 0 1 25.857422 33.554688 A 7.6014034 7.6014034 0 0 1 24.451172 37.951172 L 24.451172 39.011719 L 24.535156 39.011719 C 24.965525 38.485983 25.33778 37.9024 25.638672 37.265625 L 27.447266 38.119141 C 27.301543 38.427537 27.138943 38.723469 26.966797 39.011719 L 28.677734 39.011719 L 28.677734 34.388672 L 26.607422 34.388672 L 26.607422 33.421875 L 25.853516 33.421875 z M 30.830078 34.388672 L 30.830078 39.011719 L 36.042969 39.011719 L 36.042969 34.388672 L 30.830078 34.388672 z M 36.451172 34.388672 L 36.451172 39.011719 L 42.042969 39.011719 L 42.042969 34.388672 L 36.451172 34.388672 z M 42.451172 34.388672 L 42.451172 39.011719 L 46.875 39.011719 L 46.875 34.388672 L 42.451172 34.388672 z M 12.451172 38.451172 L 12.451172 39.011719 L 12.974609 39.011719 A 7.6014034 7.6014034 0 0 1 12.451172 38.451172 z M 24.042969 38.480469 A 7.6014034 7.6014034 0 0 1 23.548828 39.011719 L 24.042969 39.011719 L 24.042969 38.480469 z M 3.25 39.421875 L 3.25 40.824219 C 3.25 42.487635 3.96298 43.975306 5.0957031 45.011719 L 6.0429688 45.011719 L 6.0429688 39.421875 L 3.25 39.421875 z M 6.4511719 39.421875 L 6.4511719 45.011719 L 12.042969 45.011719 L 12.042969 42.128906 C 11.021935 41.390334 10.13955 40.475443 9.4492188 39.421875 L 6.4511719 39.421875 z M 11.970703 39.421875 C 11.993833 39.446909 12.019533 39.469394 12.042969 39.494141 L 12.042969 39.421875 L 11.970703 39.421875 z M 12.451172 39.421875 L 12.451172 39.900391 C 13.588141 40.94517 15.020871 41.677203 16.625 41.958984 C 17.099658 42.042376 17.573268 42.082589 18.042969 42.083984 L 18.042969 41.146484 A 7.6014034 7.6014034 0 0 1 13.429688 39.421875 L 12.451172 39.421875 z M 23.080078 39.421875 A 7.6014034 7.6014034 0 0 1 18.451172 41.148438 L 18.451172 42.070312 C 20.570309 41.971905 22.56868 41.06973 24.042969 39.560547 L 24.042969 39.421875 L 23.080078 39.421875 z M 26.705078 39.421875 C 26.081167 40.363656 25.316989 41.182536 24.451172 41.861328 L 24.451172 45.011719 L 30.042969 45.011719 L 30.042969 44.296875 L 25.71875 44.296875 L 25.71875 42.144531 L 28.677734 42.144531 L 28.677734 39.421875 L 26.705078 39.421875 z M 30.830078 39.421875 L 30.830078 42.144531 L 33.789062 42.144531 L 33.789062 44.296875 L 30.451172 44.296875 L 30.451172 45.011719 L 36.042969 45.011719 L 36.042969 39.421875 L 30.830078 39.421875 z M 36.451172 39.421875 L 36.451172 45.011719 L 42.042969 45.011719 L 42.042969 39.421875 L 36.451172 39.421875 z M 42.451172 39.421875 L 42.451172 45.011719 L 45.029297 45.011719 C 46.16202 43.975306 46.875 42.487635 46.875 40.824219 L 46.875 39.421875 L 42.451172 39.421875 z M 24.042969 42.167969 C 22.416152 43.319334 20.477116 43.991168 18.451172 44.068359 L 18.451172 45.011719 L 24.042969 45.011719 L 24.042969 42.167969 z M 12.451172 42.416016 L 12.451172 45.011719 L 18.042969 45.011719 L 18.042969 44.082031 C 17.458432 44.080987 16.86772 44.031451 16.277344 43.927734 C 14.879706 43.682198 13.587504 43.156755 12.451172 42.416016 z M 5.5976562 45.421875 C 5.7411912 45.525753 5.889676 45.622589 6.0429688 45.712891 L 6.0429688 45.421875 L 5.5976562 45.421875 z M 6.4511719 45.421875 L 6.4511719 45.929688 C 7.1986018 46.291101 8.034947 46.5 8.9238281 46.5 L 12.042969 46.5 L 12.042969 45.421875 L 6.4511719 45.421875 z M 12.451172 45.421875 L 12.451172 46.5 L 18.042969 46.5 L 18.042969 45.421875 L 12.451172 45.421875 z M 18.451172 45.421875 L 18.451172 46.5 L 24.042969 46.5 L 24.042969 45.421875 L 18.451172 45.421875 z M 24.451172 45.421875 L 24.451172 46.5 L 30.042969 46.5 L 30.042969 45.421875 L 24.451172 45.421875 z M 30.451172 45.421875 L 30.451172 46.5 L 36.042969 46.5 L 36.042969 45.421875 L 30.451172 45.421875 z M 36.451172 45.421875 L 36.451172 46.5 L 41.201172 46.5 C 41.488062 46.5 41.767758 46.472351 42.042969 46.431641 L 42.042969 45.421875 L 36.451172 45.421875 z M 42.451172 45.421875 L 42.451172 46.359375 C 43.213986 46.188901 43.915957 45.864344 44.527344 45.421875 L 42.451172 45.421875 z "
       transform="translate(0,1002.3622)"
       id="rect4686" />
  </g>
</svg>
